<?xml version="1.0" encoding="UTF-8"?>
<svg width="64px" height="88px" viewBox="0 0 64 88" version="1.1" xmlns="http://www.w3.org/2000/svg" xmlns:xlink="http://www.w3.org/1999/xlink">
    <!-- Generator: Sketch 63.1 (92452) - https://sketch.com -->
    <title>Slice 1</title>
    <desc>Created with Sketch.</desc>
    <g id="Page-1" stroke="none" stroke-width="1" fill="none" fill-rule="evenodd">
        <g id="noun_Map_3803746" fill-rule="nonzero">
            <g id="Group">
                <path d="M56.08,45.67 C49.67,60.35 36.48,77.29 32,82.84 C27.52,77.29 14.33,60.35 7.92,45.67 C5.79,40.78 4.35,33.84 4.35,30.41 C4.35,15.6 16.5,4 32,4 C47.5,4 59.65,15.6 59.65,30.41 C59.65,33.84 58.21,40.79 56.08,45.67 Z" id="Shape" fill="#3FCA76"></path>
                <path d="M32,0 C14.25,0 0.35,13.36 0.35,30.41 C0.35,34.22 1.84,41.75 4.25,47.27 C12.24,65.57 29.73,86.41 30.47,87.29 C30.85,87.74 31.41,88 32,88 C32.59,88 33.15,87.74 33.53,87.29 C34.27,86.41 51.76,65.57 59.75,47.27 C62.16,41.75 63.65,34.22 63.65,30.41 C63.65,13.36 49.75,0 32,0 Z M56.08,45.67 C49.67,60.35 36.48,77.29 32,82.84 C27.52,77.29 14.33,60.35 7.92,45.67 C5.79,40.78 4.35,33.84 4.35,30.41 C4.35,15.6 16.5,4 32,4 C47.5,4 59.65,15.6 59.65,30.41 C59.65,33.84 58.21,40.79 56.08,45.67 Z" id="Shape" fill="#000000"></path>
                <path d="M32,14.7 C22.72,14.7 15.18,22.19 15.18,31.4 C15.18,40.61 22.73,48.1 32,48.1 C41.27,48.1 48.82,40.61 48.82,31.4 C48.82,22.19 41.28,14.7 32,14.7 Z M32,44.1 C24.93,44.1 19.18,38.4 19.18,31.4 C19.18,24.4 24.93,18.7 32,18.7 C39.07,18.7 44.82,24.4 44.82,31.4 C44.82,38.4 39.07,44.1 32,44.1 Z" id="Shape" fill="#000000"></path>
            </g>
        </g>
    </g>
</svg>